<svg class="border shadow-md" viewBox="0 0 979.44 979.44" style="width: 979.44px; height: 979.44px;" xmlns="http://www.w3.org/2000/svg" preserveAspectRatio="none"><rect class="bg" id="bg" x="0" y="0" width="979.44" height="979.44" fill="#ffffff"/><g transform="rotate(0 489.72 489.72)"><path d="M -1179.44 -78.83 S -599.72 -163.83&#10;            0.00 -78.83 540.44 -133.24&#10;            1179.44 -78.83 1413.88 -133.24&#10;            2358.88 -78.83 h 110 V 1179.44 H -1179.44 Z" fill="#0D9BD3" id="-1"/><path d="M -1179.44 30.00 S -800.00 -41.00&#10;            0.00 30.00 579.72 -37.00&#10;            1179.44 30.00 1735.88 -54.00&#10;            2358.88 30.00 h 110 V 1179.44 H -1179.44 Z" fill="#0b8dbf" id="0"/><path id="1" d="M -1179.44 138.83 S -599.72 84.41&#10;            0.00 138.83 579.72 84.41&#10;            1179.44 138.83 1759.16 84.41&#10;            2358.88 138.83 h 110 V 1179.44 H -1179.44 Z" fill="#097fab"/><path id="2" d="M -1179.44 247.65 S -599.72 193.24&#10;            0.00 247.65 339.44 186.65&#10;            1179.44 247.65 1398.88 150.65&#10;            2358.88 247.65 h 110 V 1179.44 H -1179.44 Z" fill="#077197"/><path id="3" d="M -1179.44 356.48 S -599.72 276.48&#10;            0.00 356.48 579.72 289.48&#10;            1179.44 356.48 1759.16 277.48&#10;            2358.88 356.48 h 110 V 1179.44 H -1179.44 Z" fill="#056383"/><path id="4" d="M -1179.44 465.31 S -599.72 410.89&#10;            0.00 465.31 579.72 410.89&#10;            1179.44 465.31 1759.16 410.89&#10;            2358.88 465.31 h 110 V 1179.44 H -1179.44 Z" fill="#03556f"/><path id="5" d="M -1179.44 574.13 S -684.00 499.13&#10;            0.00 574.13 226.44 475.13&#10;            1179.44 574.13 1398.88 498.13&#10;            2358.88 574.13 h 110 V 1179.44 H -1179.44 Z" fill="#01475b"/><path id="6" d="M -1179.44 682.96 S -599.72 624.96&#10;            0.00 682.96 288.44 619.96&#10;            1179.44 682.96 1759.16 585.96&#10;            2358.88 682.96 h 110 V 1179.44 H -1179.44 Z" fill="#003947"/><path id="7" d="M -1179.44 791.79 S -989.00 688.79&#10;            0.00 791.79 579.72 737.37&#10;            1179.44 791.79 1569.88 737.37&#10;            2358.88 791.79 h 110 V 1179.44 H -1179.44 Z" fill="#002b33"/><path id="8" d="M -1179.44 900.61 S -599.72 830.61&#10;            0.00 900.61 579.72 846.20&#10;            1179.44 900.61 1528.88 846.20&#10;            2358.88 900.61 h 110 V 1179.44 H -1179.44 Z" fill="#001d1f"/></g></svg>